<?xml version="1.0" encoding="utf-8"?>
<svg xmlns="http://www.w3.org/2000/svg" xmlns:xlink="http://www.w3.org/1999/xlink" width="600" height="400" viewBox="0 0 2400 1600">
<defs>
  <clipPath id="clip460">
    <rect x="0" y="0" width="2400" height="1600"/>
  </clipPath>
</defs>
<path clip-path="url(#clip460)" d="
M0 1600 L2400 1600 L2400 0 L0 0  Z
  " fill="#ffffff" fill-rule="evenodd" fill-opacity="1"/>
<defs>
  <clipPath id="clip461">
    <rect x="480" y="0" width="1681" height="1600"/>
  </clipPath>
</defs>
<path clip-path="url(#clip460)" d="
M247.459 1423.18 L2352.76 1423.18 L2352.76 47.2441 L247.459 47.2441  Z
  " fill="#ffffff" fill-rule="evenodd" fill-opacity="1"/>
<defs>
  <clipPath id="clip462">
    <rect x="247" y="47" width="2106" height="1377"/>
  </clipPath>
</defs>
<polyline clip-path="url(#clip462)" style="stroke:#000000; stroke-linecap:butt; stroke-linejoin:round; stroke-width:2; stroke-opacity:0.1; fill:none" points="
  287.181,1423.18 287.181,47.2441 
  "/>
<polyline clip-path="url(#clip462)" style="stroke:#000000; stroke-linecap:butt; stroke-linejoin:round; stroke-width:2; stroke-opacity:0.1; fill:none" points="
  783.714,1423.18 783.714,47.2441 
  "/>
<polyline clip-path="url(#clip462)" style="stroke:#000000; stroke-linecap:butt; stroke-linejoin:round; stroke-width:2; stroke-opacity:0.1; fill:none" points="
  1280.25,1423.18 1280.25,47.2441 
  "/>
<polyline clip-path="url(#clip462)" style="stroke:#000000; stroke-linecap:butt; stroke-linejoin:round; stroke-width:2; stroke-opacity:0.1; fill:none" points="
  1776.78,1423.18 1776.78,47.2441 
  "/>
<polyline clip-path="url(#clip462)" style="stroke:#000000; stroke-linecap:butt; stroke-linejoin:round; stroke-width:2; stroke-opacity:0.1; fill:none" points="
  2273.31,1423.18 2273.31,47.2441 
  "/>
<polyline clip-path="url(#clip460)" style="stroke:#000000; stroke-linecap:butt; stroke-linejoin:round; stroke-width:4; stroke-opacity:1; fill:none" points="
  247.459,1423.18 2352.76,1423.18 
  "/>
<polyline clip-path="url(#clip460)" style="stroke:#000000; stroke-linecap:butt; stroke-linejoin:round; stroke-width:4; stroke-opacity:1; fill:none" points="
  287.181,1423.18 287.181,1404.28 
  "/>
<polyline clip-path="url(#clip460)" style="stroke:#000000; stroke-linecap:butt; stroke-linejoin:round; stroke-width:4; stroke-opacity:1; fill:none" points="
  783.714,1423.18 783.714,1404.28 
  "/>
<polyline clip-path="url(#clip460)" style="stroke:#000000; stroke-linecap:butt; stroke-linejoin:round; stroke-width:4; stroke-opacity:1; fill:none" points="
  1280.25,1423.18 1280.25,1404.28 
  "/>
<polyline clip-path="url(#clip460)" style="stroke:#000000; stroke-linecap:butt; stroke-linejoin:round; stroke-width:4; stroke-opacity:1; fill:none" points="
  1776.78,1423.18 1776.78,1404.28 
  "/>
<polyline clip-path="url(#clip460)" style="stroke:#000000; stroke-linecap:butt; stroke-linejoin:round; stroke-width:4; stroke-opacity:1; fill:none" points="
  2273.31,1423.18 2273.31,1404.28 
  "/>
<path clip-path="url(#clip460)" d="M287.181 1454.1 Q283.57 1454.1 281.742 1457.66 Q279.936 1461.2 279.936 1468.33 Q279.936 1475.44 281.742 1479.01 Q283.57 1482.55 287.181 1482.55 Q290.816 1482.55 292.621 1479.01 Q294.45 1475.44 294.45 1468.33 Q294.45 1461.2 292.621 1457.66 Q290.816 1454.1 287.181 1454.1 M287.181 1450.39 Q292.991 1450.39 296.047 1455 Q299.126 1459.58 299.126 1468.33 Q299.126 1477.06 296.047 1481.67 Q292.991 1486.25 287.181 1486.25 Q281.371 1486.25 278.292 1481.67 Q275.237 1477.06 275.237 1468.33 Q275.237 1459.58 278.292 1455 Q281.371 1450.39 287.181 1450.39 Z" fill="#000000" fill-rule="evenodd" fill-opacity="1" /><path clip-path="url(#clip460)" d="M762.985 1481.64 L779.304 1481.64 L779.304 1485.58 L757.36 1485.58 L757.36 1481.64 Q760.022 1478.89 764.605 1474.26 Q769.211 1469.61 770.392 1468.27 Q772.637 1465.74 773.517 1464.01 Q774.42 1462.25 774.42 1460.56 Q774.42 1457.8 772.475 1456.07 Q770.554 1454.33 767.452 1454.33 Q765.253 1454.33 762.799 1455.09 Q760.369 1455.86 757.591 1457.41 L757.591 1452.69 Q760.415 1451.55 762.869 1450.97 Q765.323 1450.39 767.36 1450.39 Q772.73 1450.39 775.924 1453.08 Q779.119 1455.77 779.119 1460.26 Q779.119 1462.39 778.309 1464.31 Q777.522 1466.2 775.415 1468.8 Q774.836 1469.47 771.735 1472.69 Q768.633 1475.88 762.985 1481.64 Z" fill="#000000" fill-rule="evenodd" fill-opacity="1" /><path clip-path="url(#clip460)" d="M789.165 1451.02 L807.521 1451.02 L807.521 1454.96 L793.447 1454.96 L793.447 1463.43 Q794.466 1463.08 795.484 1462.92 Q796.503 1462.73 797.521 1462.73 Q803.308 1462.73 806.688 1465.9 Q810.068 1469.08 810.068 1474.49 Q810.068 1480.07 806.595 1483.17 Q803.123 1486.25 796.804 1486.25 Q794.628 1486.25 792.359 1485.88 Q790.114 1485.51 787.707 1484.77 L787.707 1480.07 Q789.79 1481.2 792.012 1481.76 Q794.234 1482.32 796.711 1482.32 Q800.716 1482.32 803.054 1480.21 Q805.392 1478.1 805.392 1474.49 Q805.392 1470.88 803.054 1468.77 Q800.716 1466.67 796.711 1466.67 Q794.836 1466.67 792.961 1467.08 Q791.109 1467.5 789.165 1468.38 L789.165 1451.02 Z" fill="#000000" fill-rule="evenodd" fill-opacity="1" /><path clip-path="url(#clip460)" d="M1254.95 1451.02 L1273.3 1451.02 L1273.3 1454.96 L1259.23 1454.96 L1259.23 1463.43 Q1260.25 1463.08 1261.26 1462.92 Q1262.28 1462.73 1263.3 1462.73 Q1269.09 1462.73 1272.47 1465.9 Q1275.85 1469.08 1275.85 1474.49 Q1275.85 1480.07 1272.38 1483.17 Q1268.9 1486.25 1262.58 1486.25 Q1260.41 1486.25 1258.14 1485.88 Q1255.89 1485.51 1253.49 1484.77 L1253.49 1480.07 Q1255.57 1481.2 1257.79 1481.76 Q1260.01 1482.32 1262.49 1482.32 Q1266.5 1482.32 1268.83 1480.21 Q1271.17 1478.1 1271.17 1474.49 Q1271.17 1470.88 1268.83 1468.77 Q1266.5 1466.67 1262.49 1466.67 Q1260.62 1466.67 1258.74 1467.08 Q1256.89 1467.5 1254.95 1468.38 L1254.95 1451.02 Z" fill="#000000" fill-rule="evenodd" fill-opacity="1" /><path clip-path="url(#clip460)" d="M1295.06 1454.1 Q1291.45 1454.1 1289.62 1457.66 Q1287.82 1461.2 1287.82 1468.33 Q1287.82 1475.44 1289.62 1479.01 Q1291.45 1482.55 1295.06 1482.55 Q1298.69 1482.55 1300.5 1479.01 Q1302.33 1475.44 1302.33 1468.33 Q1302.33 1461.2 1300.5 1457.66 Q1298.69 1454.1 1295.06 1454.1 M1295.06 1450.39 Q1300.87 1450.39 1303.93 1455 Q1307.01 1459.58 1307.01 1468.33 Q1307.01 1477.06 1303.93 1481.67 Q1300.87 1486.25 1295.06 1486.25 Q1289.25 1486.25 1286.17 1481.67 Q1283.12 1477.06 1283.12 1468.33 Q1283.12 1459.58 1286.17 1455 Q1289.25 1450.39 1295.06 1450.39 Z" fill="#000000" fill-rule="evenodd" fill-opacity="1" /><path clip-path="url(#clip460)" d="M1750.63 1451.02 L1772.85 1451.02 L1772.85 1453.01 L1760.31 1485.58 L1755.42 1485.58 L1767.23 1454.96 L1750.63 1454.96 L1750.63 1451.02 Z" fill="#000000" fill-rule="evenodd" fill-opacity="1" /><path clip-path="url(#clip460)" d="M1782.02 1451.02 L1800.38 1451.02 L1800.38 1454.96 L1786.3 1454.96 L1786.3 1463.43 Q1787.32 1463.08 1788.34 1462.92 Q1789.36 1462.73 1790.38 1462.73 Q1796.16 1462.73 1799.54 1465.9 Q1802.92 1469.08 1802.92 1474.49 Q1802.92 1480.07 1799.45 1483.17 Q1795.98 1486.25 1789.66 1486.25 Q1787.48 1486.25 1785.22 1485.88 Q1782.97 1485.51 1780.56 1484.77 L1780.56 1480.07 Q1782.65 1481.2 1784.87 1481.76 Q1787.09 1482.32 1789.57 1482.32 Q1793.57 1482.32 1795.91 1480.21 Q1798.25 1478.1 1798.25 1474.49 Q1798.25 1470.88 1795.91 1468.77 Q1793.57 1466.67 1789.57 1466.67 Q1787.69 1466.67 1785.82 1467.08 Q1783.97 1467.5 1782.02 1468.38 L1782.02 1451.02 Z" fill="#000000" fill-rule="evenodd" fill-opacity="1" /><path clip-path="url(#clip460)" d="M2232.92 1481.64 L2240.56 1481.64 L2240.56 1455.28 L2232.25 1456.95 L2232.25 1452.69 L2240.51 1451.02 L2245.19 1451.02 L2245.19 1481.64 L2252.82 1481.64 L2252.82 1485.58 L2232.92 1485.58 L2232.92 1481.64 Z" fill="#000000" fill-rule="evenodd" fill-opacity="1" /><path clip-path="url(#clip460)" d="M2272.27 1454.1 Q2268.66 1454.1 2266.83 1457.66 Q2265.02 1461.2 2265.02 1468.33 Q2265.02 1475.44 2266.83 1479.01 Q2268.66 1482.55 2272.27 1482.55 Q2275.9 1482.55 2277.71 1479.01 Q2279.54 1475.44 2279.54 1468.33 Q2279.54 1461.2 2277.71 1457.66 Q2275.9 1454.1 2272.27 1454.1 M2272.27 1450.39 Q2278.08 1450.39 2281.13 1455 Q2284.21 1459.58 2284.21 1468.33 Q2284.21 1477.06 2281.13 1481.67 Q2278.08 1486.25 2272.27 1486.25 Q2266.46 1486.25 2263.38 1481.67 Q2260.32 1477.06 2260.32 1468.33 Q2260.32 1459.58 2263.38 1455 Q2266.46 1450.39 2272.27 1450.39 Z" fill="#000000" fill-rule="evenodd" fill-opacity="1" /><path clip-path="url(#clip460)" d="M2302.43 1454.1 Q2298.82 1454.1 2296.99 1457.66 Q2295.19 1461.2 2295.19 1468.33 Q2295.19 1475.44 2296.99 1479.01 Q2298.82 1482.55 2302.43 1482.55 Q2306.07 1482.55 2307.87 1479.01 Q2309.7 1475.44 2309.7 1468.33 Q2309.7 1461.2 2307.87 1457.66 Q2306.07 1454.1 2302.43 1454.1 M2302.43 1450.39 Q2308.24 1450.39 2311.3 1455 Q2314.38 1459.58 2314.38 1468.33 Q2314.38 1477.06 2311.3 1481.67 Q2308.24 1486.25 2302.43 1486.25 Q2296.62 1486.25 2293.54 1481.67 Q2290.49 1477.06 2290.49 1468.33 Q2290.49 1459.58 2293.54 1455 Q2296.62 1450.39 2302.43 1450.39 Z" fill="#000000" fill-rule="evenodd" fill-opacity="1" /><path clip-path="url(#clip460)" d="M1237.15 1522.27 L1237.15 1532.4 L1249.21 1532.4 L1249.21 1536.95 L1237.15 1536.95 L1237.15 1556.3 Q1237.15 1560.66 1238.33 1561.9 Q1239.54 1563.14 1243.2 1563.14 L1249.21 1563.14 L1249.21 1568.04 L1243.2 1568.04 Q1236.42 1568.04 1233.84 1565.53 Q1231.26 1562.98 1231.26 1556.3 L1231.26 1536.95 L1226.97 1536.95 L1226.97 1532.4 L1231.26 1532.4 L1231.26 1522.27 L1237.15 1522.27 Z" fill="#000000" fill-rule="evenodd" fill-opacity="1" /><path clip-path="url(#clip460)" d="M1256.92 1532.4 L1262.77 1532.4 L1262.77 1568.04 L1256.92 1568.04 L1256.92 1532.4 M1256.92 1518.52 L1262.77 1518.52 L1262.77 1525.93 L1256.92 1525.93 L1256.92 1518.52 Z" fill="#000000" fill-rule="evenodd" fill-opacity="1" /><path clip-path="url(#clip460)" d="M1300.68 1533.76 L1300.68 1539.24 Q1298.2 1537.87 1295.68 1537.2 Q1293.2 1536.5 1290.65 1536.5 Q1284.96 1536.5 1281.81 1540.13 Q1278.65 1543.73 1278.65 1550.25 Q1278.65 1556.78 1281.81 1560.4 Q1284.96 1564 1290.65 1564 Q1293.2 1564 1295.68 1563.33 Q1298.2 1562.63 1300.68 1561.26 L1300.68 1566.68 Q1298.23 1567.82 1295.59 1568.39 Q1292.98 1568.97 1290.02 1568.97 Q1281.97 1568.97 1277.22 1563.91 Q1272.48 1558.85 1272.48 1550.25 Q1272.48 1541.53 1277.25 1536.53 Q1282.06 1531.54 1290.4 1531.54 Q1293.11 1531.54 1295.68 1532.11 Q1298.26 1532.65 1300.68 1533.76 Z" fill="#000000" fill-rule="evenodd" fill-opacity="1" /><path clip-path="url(#clip460)" d="M1310.64 1518.52 L1316.53 1518.52 L1316.53 1547.77 L1334 1532.4 L1341.48 1532.4 L1322.58 1549.07 L1342.28 1568.04 L1334.64 1568.04 L1316.53 1550.63 L1316.53 1568.04 L1310.64 1568.04 L1310.64 1518.52 Z" fill="#000000" fill-rule="evenodd" fill-opacity="1" /><path clip-path="url(#clip460)" d="M1371.34 1533.45 L1371.34 1538.98 Q1368.86 1537.71 1366.18 1537.07 Q1363.51 1536.44 1360.65 1536.44 Q1356.28 1536.44 1354.09 1537.77 Q1351.92 1539.11 1351.92 1541.79 Q1351.92 1543.82 1353.48 1545 Q1355.04 1546.15 1359.75 1547.2 L1361.76 1547.64 Q1368 1548.98 1370.61 1551.43 Q1373.25 1553.85 1373.25 1558.21 Q1373.25 1563.17 1369.3 1566.07 Q1365.39 1568.97 1358.51 1568.97 Q1355.65 1568.97 1352.53 1568.39 Q1349.44 1567.85 1346 1566.74 L1346 1560.69 Q1349.25 1562.38 1352.4 1563.24 Q1355.55 1564.07 1358.64 1564.07 Q1362.78 1564.07 1365.01 1562.66 Q1367.23 1561.23 1367.23 1558.65 Q1367.23 1556.27 1365.61 1554.99 Q1364.02 1553.72 1358.58 1552.54 L1356.54 1552.07 Q1351.1 1550.92 1348.68 1548.56 Q1346.26 1546.18 1346.26 1542.04 Q1346.26 1537.01 1349.82 1534.27 Q1353.39 1531.54 1359.94 1531.54 Q1363.19 1531.54 1366.06 1532.01 Q1368.92 1532.49 1371.34 1533.45 Z" fill="#000000" fill-rule="evenodd" fill-opacity="1" /><polyline clip-path="url(#clip462)" style="stroke:#000000; stroke-linecap:butt; stroke-linejoin:round; stroke-width:2; stroke-opacity:0.1; fill:none" points="
  247.459,1384.24 2352.76,1384.24 
  "/>
<polyline clip-path="url(#clip462)" style="stroke:#000000; stroke-linecap:butt; stroke-linejoin:round; stroke-width:2; stroke-opacity:0.1; fill:none" points="
  247.459,1059.73 2352.76,1059.73 
  "/>
<polyline clip-path="url(#clip462)" style="stroke:#000000; stroke-linecap:butt; stroke-linejoin:round; stroke-width:2; stroke-opacity:0.1; fill:none" points="
  247.459,735.212 2352.76,735.212 
  "/>
<polyline clip-path="url(#clip462)" style="stroke:#000000; stroke-linecap:butt; stroke-linejoin:round; stroke-width:2; stroke-opacity:0.1; fill:none" points="
  247.459,410.699 2352.76,410.699 
  "/>
<polyline clip-path="url(#clip462)" style="stroke:#000000; stroke-linecap:butt; stroke-linejoin:round; stroke-width:2; stroke-opacity:0.1; fill:none" points="
  247.459,86.1857 2352.76,86.1857 
  "/>
<polyline clip-path="url(#clip460)" style="stroke:#000000; stroke-linecap:butt; stroke-linejoin:round; stroke-width:4; stroke-opacity:1; fill:none" points="
  247.459,1423.18 247.459,47.2441 
  "/>
<polyline clip-path="url(#clip460)" style="stroke:#000000; stroke-linecap:butt; stroke-linejoin:round; stroke-width:4; stroke-opacity:1; fill:none" points="
  247.459,1384.24 266.356,1384.24 
  "/>
<polyline clip-path="url(#clip460)" style="stroke:#000000; stroke-linecap:butt; stroke-linejoin:round; stroke-width:4; stroke-opacity:1; fill:none" points="
  247.459,1059.73 266.356,1059.73 
  "/>
<polyline clip-path="url(#clip460)" style="stroke:#000000; stroke-linecap:butt; stroke-linejoin:round; stroke-width:4; stroke-opacity:1; fill:none" points="
  247.459,735.212 266.356,735.212 
  "/>
<polyline clip-path="url(#clip460)" style="stroke:#000000; stroke-linecap:butt; stroke-linejoin:round; stroke-width:4; stroke-opacity:1; fill:none" points="
  247.459,410.699 266.356,410.699 
  "/>
<polyline clip-path="url(#clip460)" style="stroke:#000000; stroke-linecap:butt; stroke-linejoin:round; stroke-width:4; stroke-opacity:1; fill:none" points="
  247.459,86.1857 266.356,86.1857 
  "/>
<path clip-path="url(#clip460)" d="M154.283 1370.04 Q150.672 1370.04 148.843 1373.6 Q147.038 1377.14 147.038 1384.27 Q147.038 1391.38 148.843 1394.94 Q150.672 1398.49 154.283 1398.49 Q157.917 1398.49 159.723 1394.94 Q161.552 1391.38 161.552 1384.27 Q161.552 1377.14 159.723 1373.6 Q157.917 1370.04 154.283 1370.04 M154.283 1366.33 Q160.093 1366.33 163.149 1370.94 Q166.227 1375.52 166.227 1384.27 Q166.227 1393 163.149 1397.61 Q160.093 1402.19 154.283 1402.19 Q148.473 1402.19 145.394 1397.61 Q142.339 1393 142.339 1384.27 Q142.339 1375.52 145.394 1370.94 Q148.473 1366.33 154.283 1366.33 Z" fill="#000000" fill-rule="evenodd" fill-opacity="1" /><path clip-path="url(#clip460)" d="M174.445 1395.64 L179.329 1395.64 L179.329 1401.52 L174.445 1401.52 L174.445 1395.64 Z" fill="#000000" fill-rule="evenodd" fill-opacity="1" /><path clip-path="url(#clip460)" d="M199.514 1370.04 Q195.903 1370.04 194.075 1373.6 Q192.269 1377.14 192.269 1384.27 Q192.269 1391.38 194.075 1394.94 Q195.903 1398.49 199.514 1398.49 Q203.149 1398.49 204.954 1394.94 Q206.783 1391.38 206.783 1384.27 Q206.783 1377.14 204.954 1373.6 Q203.149 1370.04 199.514 1370.04 M199.514 1366.33 Q205.324 1366.33 208.38 1370.94 Q211.459 1375.52 211.459 1384.27 Q211.459 1393 208.38 1397.61 Q205.324 1402.19 199.514 1402.19 Q193.704 1402.19 190.625 1397.61 Q187.57 1393 187.57 1384.27 Q187.57 1375.52 190.625 1370.94 Q193.704 1366.33 199.514 1366.33 Z" fill="#000000" fill-rule="evenodd" fill-opacity="1" /><path clip-path="url(#clip460)" d="M149.306 1073.07 L165.626 1073.07 L165.626 1077.01 L143.681 1077.01 L143.681 1073.07 Q146.343 1070.32 150.927 1065.69 Q155.533 1061.03 156.714 1059.69 Q158.959 1057.17 159.839 1055.43 Q160.741 1053.67 160.741 1051.98 Q160.741 1049.23 158.797 1047.49 Q156.876 1045.76 153.774 1045.76 Q151.575 1045.76 149.121 1046.52 Q146.691 1047.28 143.913 1048.83 L143.913 1044.11 Q146.737 1042.98 149.191 1042.4 Q151.644 1041.82 153.681 1041.82 Q159.052 1041.82 162.246 1044.51 Q165.44 1047.19 165.44 1051.68 Q165.44 1053.81 164.63 1055.73 Q163.843 1057.63 161.737 1060.22 Q161.158 1060.89 158.056 1064.11 Q154.954 1067.31 149.306 1073.07 Z" fill="#000000" fill-rule="evenodd" fill-opacity="1" /><path clip-path="url(#clip460)" d="M175.44 1071.13 L180.325 1071.13 L180.325 1077.01 L175.44 1077.01 L175.44 1071.13 Z" fill="#000000" fill-rule="evenodd" fill-opacity="1" /><path clip-path="url(#clip460)" d="M190.556 1042.45 L208.912 1042.45 L208.912 1046.38 L194.838 1046.38 L194.838 1054.85 Q195.857 1054.51 196.875 1054.34 Q197.894 1054.16 198.912 1054.16 Q204.699 1054.16 208.079 1057.33 Q211.459 1060.5 211.459 1065.92 Q211.459 1071.5 207.987 1074.6 Q204.514 1077.68 198.195 1077.68 Q196.019 1077.68 193.75 1077.31 Q191.505 1076.94 189.098 1076.19 L189.098 1071.5 Q191.181 1072.63 193.403 1073.19 Q195.625 1073.74 198.102 1073.74 Q202.107 1073.74 204.445 1071.63 Q206.783 1069.53 206.783 1065.92 Q206.783 1062.31 204.445 1060.2 Q202.107 1058.09 198.102 1058.09 Q196.227 1058.09 194.352 1058.51 Q192.5 1058.93 190.556 1059.81 L190.556 1042.45 Z" fill="#000000" fill-rule="evenodd" fill-opacity="1" /><path clip-path="url(#clip460)" d="M144.329 717.932 L162.686 717.932 L162.686 721.867 L148.612 721.867 L148.612 730.339 Q149.63 729.992 150.649 729.83 Q151.667 729.645 152.686 729.645 Q158.473 729.645 161.852 732.816 Q165.232 735.987 165.232 741.404 Q165.232 746.983 161.76 750.085 Q158.288 753.163 151.968 753.163 Q149.792 753.163 147.524 752.793 Q145.279 752.423 142.871 751.682 L142.871 746.983 Q144.954 748.117 147.177 748.673 Q149.399 749.228 151.876 749.228 Q155.88 749.228 158.218 747.122 Q160.556 745.015 160.556 741.404 Q160.556 737.793 158.218 735.687 Q155.88 733.58 151.876 733.58 Q150.001 733.58 148.126 733.997 Q146.274 734.413 144.329 735.293 L144.329 717.932 Z" fill="#000000" fill-rule="evenodd" fill-opacity="1" /><path clip-path="url(#clip460)" d="M174.445 746.612 L179.329 746.612 L179.329 752.492 L174.445 752.492 L174.445 746.612 Z" fill="#000000" fill-rule="evenodd" fill-opacity="1" /><path clip-path="url(#clip460)" d="M199.514 721.011 Q195.903 721.011 194.075 724.575 Q192.269 728.117 192.269 735.247 Q192.269 742.353 194.075 745.918 Q195.903 749.46 199.514 749.46 Q203.149 749.46 204.954 745.918 Q206.783 742.353 206.783 735.247 Q206.783 728.117 204.954 724.575 Q203.149 721.011 199.514 721.011 M199.514 717.307 Q205.324 717.307 208.38 721.913 Q211.459 726.497 211.459 735.247 Q211.459 743.973 208.38 748.58 Q205.324 753.163 199.514 753.163 Q193.704 753.163 190.625 748.58 Q187.57 743.973 187.57 735.247 Q187.57 726.497 190.625 721.913 Q193.704 717.307 199.514 717.307 Z" fill="#000000" fill-rule="evenodd" fill-opacity="1" /><path clip-path="url(#clip460)" d="M144.098 393.419 L166.32 393.419 L166.32 395.41 L153.774 427.979 L148.89 427.979 L160.695 397.354 L144.098 397.354 L144.098 393.419 Z" fill="#000000" fill-rule="evenodd" fill-opacity="1" /><path clip-path="url(#clip460)" d="M175.44 422.099 L180.325 422.099 L180.325 427.979 L175.44 427.979 L175.44 422.099 Z" fill="#000000" fill-rule="evenodd" fill-opacity="1" /><path clip-path="url(#clip460)" d="M190.556 393.419 L208.912 393.419 L208.912 397.354 L194.838 397.354 L194.838 405.826 Q195.857 405.479 196.875 405.317 Q197.894 405.132 198.912 405.132 Q204.699 405.132 208.079 408.303 Q211.459 411.474 211.459 416.891 Q211.459 422.47 207.987 425.571 Q204.514 428.65 198.195 428.65 Q196.019 428.65 193.75 428.28 Q191.505 427.909 189.098 427.169 L189.098 422.47 Q191.181 423.604 193.403 424.159 Q195.625 424.715 198.102 424.715 Q202.107 424.715 204.445 422.608 Q206.783 420.502 206.783 416.891 Q206.783 413.28 204.445 411.173 Q202.107 409.067 198.102 409.067 Q196.227 409.067 194.352 409.484 Q192.5 409.9 190.556 410.78 L190.556 393.419 Z" fill="#000000" fill-rule="evenodd" fill-opacity="1" /><path clip-path="url(#clip460)" d="M114.931 99.5305 L122.57 99.5305 L122.57 73.1649 L114.26 74.8316 L114.26 70.5723 L122.524 68.9057 L127.2 68.9057 L127.2 99.5305 L134.839 99.5305 L134.839 103.466 L114.931 103.466 L114.931 99.5305 Z" fill="#000000" fill-rule="evenodd" fill-opacity="1" /><path clip-path="url(#clip460)" d="M154.283 71.9844 Q150.672 71.9844 148.843 75.5492 Q147.038 79.0908 147.038 86.2204 Q147.038 93.3268 148.843 96.8916 Q150.672 100.433 154.283 100.433 Q157.917 100.433 159.723 96.8916 Q161.552 93.3268 161.552 86.2204 Q161.552 79.0908 159.723 75.5492 Q157.917 71.9844 154.283 71.9844 M154.283 68.2807 Q160.093 68.2807 163.149 72.8871 Q166.227 77.4704 166.227 86.2204 Q166.227 94.9472 163.149 99.5537 Q160.093 104.137 154.283 104.137 Q148.473 104.137 145.394 99.5537 Q142.339 94.9472 142.339 86.2204 Q142.339 77.4704 145.394 72.8871 Q148.473 68.2807 154.283 68.2807 Z" fill="#000000" fill-rule="evenodd" fill-opacity="1" /><path clip-path="url(#clip460)" d="M174.445 97.5861 L179.329 97.5861 L179.329 103.466 L174.445 103.466 L174.445 97.5861 Z" fill="#000000" fill-rule="evenodd" fill-opacity="1" /><path clip-path="url(#clip460)" d="M199.514 71.9844 Q195.903 71.9844 194.075 75.5492 Q192.269 79.0908 192.269 86.2204 Q192.269 93.3268 194.075 96.8916 Q195.903 100.433 199.514 100.433 Q203.149 100.433 204.954 96.8916 Q206.783 93.3268 206.783 86.2204 Q206.783 79.0908 204.954 75.5492 Q203.149 71.9844 199.514 71.9844 M199.514 68.2807 Q205.324 68.2807 208.38 72.8871 Q211.459 77.4704 211.459 86.2204 Q211.459 94.9472 208.38 99.5537 Q205.324 104.137 199.514 104.137 Q193.704 104.137 190.625 99.5537 Q187.57 94.9472 187.57 86.2204 Q187.57 77.4704 190.625 72.8871 Q193.704 68.2807 199.514 68.2807 Z" fill="#000000" fill-rule="evenodd" fill-opacity="1" /><path clip-path="url(#clip460)" d="M42.4881 991.273 L64.0042 991.273 L64.0042 997.129 L42.679 997.129 Q37.6183 997.129 35.1038 999.102 Q32.5894 1001.08 32.5894 1005.02 Q32.5894 1009.76 35.6131 1012.5 Q38.6368 1015.24 43.8567 1015.24 L64.0042 1015.24 L64.0042 1021.13 L28.3562 1021.13 L28.3562 1015.24 L33.8944 1015.24 Q30.6797 1013.14 29.0883 1010.31 Q27.4968 1007.44 27.4968 1003.72 Q27.4968 997.575 31.3163 994.424 Q35.1038 991.273 42.4881 991.273 Z" fill="#000000" fill-rule="evenodd" fill-opacity="1" /><path clip-path="url(#clip460)" d="M49.9359 980.196 L28.3562 980.196 L28.3562 974.34 L49.7131 974.34 Q54.7739 974.34 57.3202 972.366 Q59.8346 970.393 59.8346 966.446 Q59.8346 961.704 56.8109 958.967 Q53.7872 956.197 48.5673 956.197 L28.3562 956.197 L28.3562 950.341 L64.0042 950.341 L64.0042 956.197 L58.5296 956.197 Q61.7762 958.33 63.3676 961.163 Q64.9272 963.964 64.9272 967.688 Q64.9272 973.83 61.1078 977.013 Q57.2883 980.196 49.9359 980.196 M27.4968 965.46 L27.4968 965.46 Z" fill="#000000" fill-rule="evenodd" fill-opacity="1" /><path clip-path="url(#clip460)" d="M35.1993 910.524 Q31.2526 908.327 29.3747 905.272 Q27.4968 902.216 27.4968 898.079 Q27.4968 892.509 31.4117 889.485 Q35.2948 886.461 42.4881 886.461 L64.0042 886.461 L64.0042 892.349 L42.679 892.349 Q37.5546 892.349 35.072 894.164 Q32.5894 895.978 32.5894 899.702 Q32.5894 904.253 35.6131 906.895 Q38.6368 909.537 43.8567 909.537 L64.0042 909.537 L64.0042 915.425 L42.679 915.425 Q37.5228 915.425 35.072 917.239 Q32.5894 919.054 32.5894 922.841 Q32.5894 927.329 35.6449 929.971 Q38.6686 932.613 43.8567 932.613 L64.0042 932.613 L64.0042 938.501 L28.3562 938.501 L28.3562 932.613 L33.8944 932.613 Q30.616 930.607 29.0564 927.806 Q27.4968 925.006 27.4968 921.154 Q27.4968 917.271 29.4702 914.566 Q31.4436 911.828 35.1993 910.524 Z" fill="#000000" fill-rule="evenodd" fill-opacity="1" /><path clip-path="url(#clip460)" d="M46.212 849.19 Q39.7508 849.19 36.0905 851.864 Q32.3984 854.505 32.3984 859.152 Q32.3984 863.799 36.0905 866.473 Q39.7508 869.115 46.212 869.115 Q52.6732 869.115 56.3653 866.473 Q60.0256 863.799 60.0256 859.152 Q60.0256 854.505 56.3653 851.864 Q52.6732 849.19 46.212 849.19 M33.7671 869.115 Q30.5842 867.269 29.0564 864.468 Q27.4968 861.635 27.4968 857.72 Q27.4968 851.227 32.6531 847.185 Q37.8093 843.111 46.212 843.111 Q54.6147 843.111 59.771 847.185 Q64.9272 851.227 64.9272 857.72 Q64.9272 861.635 63.3994 864.468 Q61.8398 867.269 58.657 869.115 L64.0042 869.115 L64.0042 875.003 L14.479 875.003 L14.479 869.115 L33.7671 869.115 Z" fill="#000000" fill-rule="evenodd" fill-opacity="1" /><path clip-path="url(#clip460)" d="M44.7161 802.911 L47.5806 802.911 L47.5806 829.838 Q53.6281 829.456 56.8109 826.21 Q59.9619 822.931 59.9619 817.107 Q59.9619 813.733 59.1344 810.582 Q58.3069 807.399 56.6518 804.28 L62.1899 804.28 Q63.5267 807.431 64.227 810.741 Q64.9272 814.051 64.9272 817.457 Q64.9272 825.987 59.9619 830.984 Q54.9967 835.949 46.5303 835.949 Q37.7774 835.949 32.6531 831.239 Q27.4968 826.496 27.4968 818.475 Q27.4968 811.282 32.1438 807.113 Q36.7589 802.911 44.7161 802.911 M42.9973 808.768 Q38.1912 808.831 35.3266 811.473 Q32.4621 814.083 32.4621 818.412 Q32.4621 823.313 35.2312 826.273 Q38.0002 829.202 43.0292 829.647 L42.9973 808.768 Z" fill="#000000" fill-rule="evenodd" fill-opacity="1" /><path clip-path="url(#clip460)" d="M33.8307 772.642 Q33.2578 773.629 33.0032 774.807 Q32.7167 775.952 32.7167 777.353 Q32.7167 782.318 35.9632 784.992 Q39.1779 787.634 45.2253 787.634 L64.0042 787.634 L64.0042 793.522 L28.3562 793.522 L28.3562 787.634 L33.8944 787.634 Q30.6479 785.788 29.0883 782.827 Q27.4968 779.867 27.4968 775.634 Q27.4968 775.029 27.5923 774.297 Q27.656 773.565 27.8151 772.674 L33.8307 772.642 Z" fill="#000000" fill-rule="evenodd" fill-opacity="1" /><path clip-path="url(#clip460)" d="M32.4621 731.965 Q32.4621 736.676 36.1542 739.413 Q39.8145 742.151 46.212 742.151 Q52.6095 742.151 56.3017 739.445 Q59.9619 736.708 59.9619 731.965 Q59.9619 727.287 56.2698 724.549 Q52.5777 721.812 46.212 721.812 Q39.8781 721.812 36.186 724.549 Q32.4621 727.287 32.4621 731.965 M27.4968 731.965 Q27.4968 724.327 32.4621 719.966 Q37.4273 715.606 46.212 715.606 Q54.9649 715.606 59.9619 719.966 Q64.9272 724.327 64.9272 731.965 Q64.9272 739.636 59.9619 743.997 Q54.9649 748.325 46.212 748.325 Q37.4273 748.325 32.4621 743.997 Q27.4968 739.636 27.4968 731.965 Z" fill="#000000" fill-rule="evenodd" fill-opacity="1" /><path clip-path="url(#clip460)" d="M14.479 687.851 L19.3487 687.851 L19.3487 693.453 Q19.3487 696.604 20.6219 697.845 Q21.895 699.055 25.2052 699.055 L28.3562 699.055 L28.3562 689.411 L32.9077 689.411 L32.9077 699.055 L64.0042 699.055 L64.0042 704.943 L32.9077 704.943 L32.9077 710.545 L28.3562 710.545 L28.3562 704.943 L25.8736 704.943 Q19.9216 704.943 17.2162 702.174 Q14.479 699.405 14.479 693.389 L14.479 687.851 Z" fill="#000000" fill-rule="evenodd" fill-opacity="1" /><path clip-path="url(#clip460)" d="M46.0847 646.028 Q46.0847 653.126 47.7079 655.863 Q49.3312 658.601 53.2461 658.601 Q56.3653 658.601 58.2114 656.564 Q60.0256 654.495 60.0256 650.962 Q60.0256 646.092 56.5881 643.164 Q53.1188 640.204 47.3897 640.204 L46.0847 640.204 L46.0847 646.028 M43.6657 634.347 L64.0042 634.347 L64.0042 640.204 L58.5933 640.204 Q61.8398 642.209 63.3994 645.201 Q64.9272 648.193 64.9272 652.521 Q64.9272 657.996 61.8716 661.242 Q58.7843 664.457 53.6281 664.457 Q47.6125 664.457 44.5569 660.447 Q41.5014 656.405 41.5014 648.416 L41.5014 640.204 L40.9285 640.204 Q36.8862 640.204 34.6901 642.877 Q32.4621 645.519 32.4621 650.325 Q32.4621 653.381 33.1941 656.277 Q33.9262 659.174 35.3903 661.847 L29.9795 661.847 Q28.7381 658.633 28.1334 655.609 Q27.4968 652.585 27.4968 649.721 Q27.4968 641.986 31.5072 638.167 Q35.5176 634.347 43.6657 634.347 Z" fill="#000000" fill-rule="evenodd" fill-opacity="1" /><path clip-path="url(#clip460)" d="M45.7664 598.827 Q39.4007 598.827 35.8996 601.468 Q32.3984 604.078 32.3984 608.821 Q32.3984 613.531 35.8996 616.173 Q39.4007 618.783 45.7664 618.783 Q52.1003 618.783 55.6014 616.173 Q59.1026 613.531 59.1026 608.821 Q59.1026 604.078 55.6014 601.468 Q52.1003 598.827 45.7664 598.827 M59.58 592.97 Q68.683 592.97 73.1071 597.012 Q77.5631 601.055 77.5631 609.394 Q77.5631 612.481 77.0857 615.218 Q76.6401 617.956 75.6852 620.534 L69.9879 620.534 Q71.3884 617.956 72.0568 615.441 Q72.7252 612.927 72.7252 610.317 Q72.7252 604.556 69.7015 601.691 Q66.7096 598.827 60.6303 598.827 L57.7339 598.827 Q60.885 600.641 62.4446 603.474 Q64.0042 606.306 64.0042 610.253 Q64.0042 616.81 59.0071 620.82 Q54.01 624.831 45.7664 624.831 Q37.491 624.831 32.4939 620.82 Q27.4968 616.81 27.4968 610.253 Q27.4968 606.306 29.0564 603.474 Q30.616 600.641 33.7671 598.827 L28.3562 598.827 L28.3562 592.97 L59.58 592.97 Z" fill="#000000" fill-rule="evenodd" fill-opacity="1" /><path clip-path="url(#clip460)" d="M44.7161 550.416 L47.5806 550.416 L47.5806 577.342 Q53.6281 576.961 56.8109 573.714 Q59.9619 570.436 59.9619 564.611 Q59.9619 561.237 59.1344 558.086 Q58.3069 554.903 56.6518 551.784 L62.1899 551.784 Q63.5267 554.935 64.227 558.245 Q64.9272 561.555 64.9272 564.961 Q64.9272 573.491 59.9619 578.488 Q54.9967 583.454 46.5303 583.454 Q37.7774 583.454 32.6531 578.743 Q27.4968 574 27.4968 565.98 Q27.4968 558.786 32.1438 554.617 Q36.7589 550.416 44.7161 550.416 M42.9973 556.272 Q38.1912 556.336 35.3266 558.977 Q32.4621 561.587 32.4621 565.916 Q32.4621 570.818 35.2312 573.778 Q38.0002 576.706 43.0292 577.151 L42.9973 556.272 Z" fill="#000000" fill-rule="evenodd" fill-opacity="1" /><path clip-path="url(#clip460)" d="M42.4881 511.171 L64.0042 511.171 L64.0042 517.027 L42.679 517.027 Q37.6183 517.027 35.1038 519.001 Q32.5894 520.974 32.5894 524.921 Q32.5894 529.663 35.6131 532.401 Q38.6368 535.138 43.8567 535.138 L64.0042 535.138 L64.0042 541.026 L28.3562 541.026 L28.3562 535.138 L33.8944 535.138 Q30.6797 533.037 29.0883 530.204 Q27.4968 527.34 27.4968 523.616 Q27.4968 517.473 31.3163 514.322 Q35.1038 511.171 42.4881 511.171 Z" fill="#000000" fill-rule="evenodd" fill-opacity="1" /><path clip-path="url(#clip460)" d="M18.2347 493.697 L28.3562 493.697 L28.3562 481.634 L32.9077 481.634 L32.9077 493.697 L52.2594 493.697 Q56.6199 493.697 57.8613 492.519 Q59.1026 491.31 59.1026 487.65 L59.1026 481.634 L64.0042 481.634 L64.0042 487.65 Q64.0042 494.429 61.4897 497.007 Q58.9434 499.585 52.2594 499.585 L32.9077 499.585 L32.9077 503.882 L28.3562 503.882 L28.3562 499.585 L18.2347 499.585 L18.2347 493.697 Z" fill="#000000" fill-rule="evenodd" fill-opacity="1" /><path clip-path="url(#clip460)" d="M29.4065 451.206 L34.9447 451.206 Q33.6716 453.689 33.035 456.362 Q32.3984 459.036 32.3984 461.9 Q32.3984 466.261 33.7352 468.457 Q35.072 470.621 37.7456 470.621 Q39.7826 470.621 40.9603 469.062 Q42.1061 467.502 43.1565 462.792 L43.6021 460.786 Q44.9389 454.548 47.3897 451.938 Q49.8086 449.296 54.1691 449.296 Q59.1344 449.296 62.0308 453.243 Q64.9272 457.158 64.9272 464.033 Q64.9272 466.897 64.3543 470.017 Q63.8132 473.104 62.6992 476.541 L56.6518 476.541 Q58.3387 473.295 59.198 470.144 Q60.0256 466.993 60.0256 463.906 Q60.0256 459.768 58.6251 457.54 Q57.1929 455.312 54.6147 455.312 Q52.2276 455.312 50.9545 456.935 Q49.6813 458.527 48.5037 463.969 L48.0262 466.006 Q46.8804 471.449 44.5251 473.868 Q42.138 476.287 38.0002 476.287 Q32.9713 476.287 30.2341 472.722 Q27.4968 469.157 27.4968 462.601 Q27.4968 459.354 27.9743 456.49 Q28.4517 453.625 29.4065 451.206 Z" fill="#000000" fill-rule="evenodd" fill-opacity="1" /><polyline clip-path="url(#clip462)" style="stroke:#009af9; stroke-linecap:butt; stroke-linejoin:round; stroke-width:4; stroke-opacity:1; fill:none" points="
  307.043,86.1857 326.904,86.1857 346.765,86.1857 366.626,86.1857 386.488,86.1857 406.349,86.1857 426.21,86.1857 446.072,86.1857 465.933,86.1857 485.794,86.1857 
  505.656,86.1857 525.517,86.1857 545.378,86.1857 565.239,86.1857 585.101,86.1857 604.962,86.1857 624.823,86.1857 644.685,86.1857 664.546,86.1857 684.407,86.1857 
  704.268,86.1857 724.13,86.1857 743.991,86.1857 763.852,86.1857 783.714,86.1857 803.575,86.1857 823.436,86.1857 843.298,86.1857 863.159,86.1857 883.02,86.1857 
  902.881,86.1857 922.743,86.1857 942.604,86.1857 962.465,86.1857 982.327,86.1857 1002.19,86.1857 1022.05,86.1857 1041.91,86.1857 1061.77,86.1857 1081.63,86.1857 
  1101.49,86.1857 1121.36,86.1857 1141.22,86.1857 1161.08,86.1857 1180.94,86.1857 1200.8,86.1857 1220.66,86.1857 1240.52,86.1857 1260.38,86.1857 1280.25,86.1857 
  1300.11,86.1857 1319.97,86.1857 1339.83,86.1857 1359.69,86.1857 1379.55,86.1857 1399.41,86.1857 1419.28,86.1857 1439.14,86.1857 1459,86.1857 1478.86,86.1857 
  1498.72,86.1857 1518.58,86.1857 1538.44,86.1857 1558.3,86.1857 1578.17,86.1857 1598.03,86.1857 1617.89,86.1857 1637.75,86.1857 1657.61,86.1857 1677.47,86.1857 
  1697.33,86.1857 1717.19,86.1857 1737.06,86.1857 1756.92,86.1857 1776.78,86.1857 1796.64,86.1857 1816.5,86.1857 1836.36,86.1857 1856.22,86.1857 1876.08,86.1857 
  1895.95,86.1857 1915.81,86.1857 1935.67,86.1857 1955.53,86.1857 1975.39,86.1857 1995.25,86.1857 2015.11,86.1857 2034.98,86.1857 2054.84,86.1857 2074.7,86.1857 
  2094.56,86.1857 2114.42,86.1857 2134.28,86.1857 2154.14,86.1857 2174,86.1857 2193.87,86.1857 2213.73,86.1857 2233.59,86.1857 2253.45,86.1857 2273.31,86.1857 
  2293.17,86.1857 
  "/>
<polyline clip-path="url(#clip462)" style="stroke:#e26f46; stroke-linecap:butt; stroke-linejoin:round; stroke-width:4; stroke-opacity:1; fill:none" points="
  307.043,1384.24 326.904,1384.24 346.765,1384.24 366.626,1384.24 386.488,1384.24 406.349,1384.24 426.21,1384.24 446.072,1384.24 465.933,1384.24 485.794,1384.24 
  505.656,1384.24 525.517,1384.24 545.378,1384.24 565.239,1384.24 585.101,1384.24 604.962,1384.24 624.823,1384.24 644.685,1384.24 664.546,1384.24 684.407,1384.24 
  704.268,1384.24 724.13,1384.24 743.991,1384.24 763.852,1384.24 783.714,1384.24 803.575,1384.24 823.436,1384.24 843.298,1384.24 863.159,1384.24 883.02,1384.24 
  902.881,1384.24 922.743,1384.24 942.604,1384.24 962.465,1384.24 982.327,1384.24 1002.19,1384.24 1022.05,1384.24 1041.91,1384.24 1061.77,1384.24 1081.63,1384.24 
  1101.49,1384.24 1121.36,1384.24 1141.22,1384.24 1161.08,1384.24 1180.94,1384.24 1200.8,1384.24 1220.66,1384.24 1240.52,1384.24 1260.38,1384.24 1280.25,1384.24 
  1300.11,1384.24 1319.97,1384.24 1339.83,1384.24 1359.69,1384.24 1379.55,1384.24 1399.41,1384.24 1419.28,1384.24 1439.14,1384.24 1459,1384.24 1478.86,1384.24 
  1498.72,1384.24 1518.58,1384.24 1538.44,1384.24 1558.3,1384.24 1578.17,1384.24 1598.03,1384.24 1617.89,1384.24 1637.75,1384.24 1657.61,1384.24 1677.47,1384.24 
  1697.33,1384.24 1717.19,1384.24 1737.06,1384.24 1756.92,1384.24 1776.78,1384.24 1796.64,1384.24 1816.5,1384.24 1836.36,1384.24 1856.22,1384.24 1876.08,1384.24 
  1895.95,1384.24 1915.81,1384.24 1935.67,1384.24 1955.53,1384.24 1975.39,1384.24 1995.25,1254.43 2015.11,1384.24 2034.98,1254.43 2054.84,1254.43 2074.7,1254.43 
  2094.56,1254.43 2114.42,1384.24 2134.28,1384.24 2154.14,1384.24 2174,1384.24 2193.87,1384.24 2213.73,1384.24 2233.59,1384.24 2253.45,1384.24 2273.31,1384.24 
  2293.17,1384.24 
  "/>
<path clip-path="url(#clip460)" d="
M1898.45 248.629 L2282.58 248.629 L2282.58 93.1086 L1898.45 93.1086  Z
  " fill="#ffffff" fill-rule="evenodd" fill-opacity="1"/>
<polyline clip-path="url(#clip460)" style="stroke:#000000; stroke-linecap:butt; stroke-linejoin:round; stroke-width:4; stroke-opacity:1; fill:none" points="
  1898.45,248.629 2282.58,248.629 2282.58,93.1086 1898.45,93.1086 1898.45,248.629 
  "/>
<polyline clip-path="url(#clip460)" style="stroke:#009af9; stroke-linecap:butt; stroke-linejoin:round; stroke-width:4; stroke-opacity:1; fill:none" points="
  1921.84,144.949 2062.2,144.949 
  "/>
<path clip-path="url(#clip460)" d="M2104.01 137.067 L2104.01 141.094 Q2102.21 140.169 2100.26 139.706 Q2098.32 139.243 2096.24 139.243 Q2093.06 139.243 2091.47 140.215 Q2089.89 141.187 2089.89 143.131 Q2089.89 144.613 2091.03 145.469 Q2092.16 146.303 2095.59 147.067 L2097.05 147.391 Q2101.58 148.363 2103.48 150.145 Q2105.4 151.905 2105.4 155.076 Q2105.4 158.687 2102.53 160.793 Q2099.68 162.9 2094.68 162.9 Q2092.6 162.9 2090.33 162.483 Q2088.09 162.09 2085.59 161.28 L2085.59 156.881 Q2087.95 158.108 2090.24 158.733 Q2092.53 159.335 2094.78 159.335 Q2097.79 159.335 2099.41 158.317 Q2101.03 157.275 2101.03 155.4 Q2101.03 153.664 2099.85 152.738 Q2098.69 151.812 2094.73 150.956 L2093.25 150.608 Q2089.29 149.775 2087.53 148.062 Q2085.77 146.326 2085.77 143.317 Q2085.77 139.659 2088.37 137.669 Q2090.96 135.678 2095.73 135.678 Q2098.09 135.678 2100.17 136.025 Q2102.25 136.372 2104.01 137.067 Z" fill="#000000" fill-rule="evenodd" fill-opacity="1" /><path clip-path="url(#clip460)" d="M2132.37 141.28 Q2133.97 138.409 2136.19 137.044 Q2138.41 135.678 2141.42 135.678 Q2145.47 135.678 2147.67 138.525 Q2149.87 141.349 2149.87 146.581 L2149.87 162.229 L2145.59 162.229 L2145.59 146.719 Q2145.59 142.993 2144.27 141.187 Q2142.95 139.382 2140.24 139.382 Q2136.93 139.382 2135.01 141.581 Q2133.09 143.78 2133.09 147.576 L2133.09 162.229 L2128.8 162.229 L2128.8 146.719 Q2128.8 142.969 2127.49 141.187 Q2126.17 139.382 2123.41 139.382 Q2120.15 139.382 2118.23 141.604 Q2116.3 143.803 2116.3 147.576 L2116.3 162.229 L2112.02 162.229 L2112.02 136.303 L2116.3 136.303 L2116.3 140.331 Q2117.76 137.946 2119.8 136.812 Q2121.84 135.678 2124.64 135.678 Q2127.46 135.678 2129.43 137.113 Q2131.42 138.548 2132.37 141.28 Z" fill="#000000" fill-rule="evenodd" fill-opacity="1" /><path clip-path="url(#clip460)" d="M2170.15 149.196 Q2164.99 149.196 2162.99 150.377 Q2161 151.557 2161 154.405 Q2161 156.673 2162.49 158.016 Q2163.99 159.335 2166.56 159.335 Q2170.1 159.335 2172.23 156.835 Q2174.38 154.312 2174.38 150.145 L2174.38 149.196 L2170.15 149.196 M2178.64 147.437 L2178.64 162.229 L2174.38 162.229 L2174.38 158.293 Q2172.92 160.655 2170.75 161.789 Q2168.57 162.9 2165.42 162.9 Q2161.44 162.9 2159.08 160.678 Q2156.74 158.432 2156.74 154.682 Q2156.74 150.307 2159.66 148.085 Q2162.6 145.863 2168.41 145.863 L2174.38 145.863 L2174.38 145.446 Q2174.38 142.507 2172.44 140.909 Q2170.52 139.289 2167.02 139.289 Q2164.8 139.289 2162.69 139.821 Q2160.59 140.354 2158.64 141.419 L2158.64 137.483 Q2160.98 136.581 2163.18 136.141 Q2165.38 135.678 2167.46 135.678 Q2173.09 135.678 2175.86 138.594 Q2178.64 141.511 2178.64 147.437 Z" fill="#000000" fill-rule="evenodd" fill-opacity="1" /><path clip-path="url(#clip460)" d="M2187.42 126.21 L2191.67 126.21 L2191.67 162.229 L2187.42 162.229 L2187.42 126.21 Z" fill="#000000" fill-rule="evenodd" fill-opacity="1" /><path clip-path="url(#clip460)" d="M2200.59 126.21 L2204.85 126.21 L2204.85 162.229 L2200.59 162.229 L2200.59 126.21 Z" fill="#000000" fill-rule="evenodd" fill-opacity="1" /><path clip-path="url(#clip460)" d="M2235.31 136.303 L2225.93 148.919 L2235.79 162.229 L2230.77 162.229 L2223.23 152.043 L2215.68 162.229 L2210.66 162.229 L2220.73 148.664 L2211.51 136.303 L2216.54 136.303 L2223.41 145.539 L2230.29 136.303 L2235.31 136.303 Z" fill="#000000" fill-rule="evenodd" fill-opacity="1" /><polyline clip-path="url(#clip460)" style="stroke:#e26f46; stroke-linecap:butt; stroke-linejoin:round; stroke-width:4; stroke-opacity:1; fill:none" points="
  1921.84,196.789 2062.2,196.789 
  "/>
<path clip-path="url(#clip460)" d="M2085.59 178.05 L2089.85 178.05 L2089.85 214.069 L2085.59 214.069 L2085.59 178.05 Z" fill="#000000" fill-rule="evenodd" fill-opacity="1" /><path clip-path="url(#clip460)" d="M2110.54 201.036 Q2105.38 201.036 2103.39 202.217 Q2101.4 203.397 2101.4 206.245 Q2101.4 208.513 2102.88 209.856 Q2104.38 211.175 2106.95 211.175 Q2110.49 211.175 2112.62 208.675 Q2114.78 206.152 2114.78 201.985 L2114.78 201.036 L2110.54 201.036 M2119.04 199.277 L2119.04 214.069 L2114.78 214.069 L2114.78 210.133 Q2113.32 212.495 2111.14 213.629 Q2108.97 214.74 2105.82 214.74 Q2101.84 214.74 2099.48 212.518 Q2097.14 210.272 2097.14 206.522 Q2097.14 202.147 2100.05 199.925 Q2102.99 197.703 2108.8 197.703 L2114.78 197.703 L2114.78 197.286 Q2114.78 194.347 2112.83 192.749 Q2110.91 191.129 2107.42 191.129 Q2105.19 191.129 2103.09 191.661 Q2100.98 192.194 2099.04 193.259 L2099.04 189.323 Q2101.37 188.421 2103.57 187.981 Q2105.77 187.518 2107.86 187.518 Q2113.48 187.518 2116.26 190.434 Q2119.04 193.351 2119.04 199.277 Z" fill="#000000" fill-rule="evenodd" fill-opacity="1" /><path clip-path="url(#clip460)" d="M2142.83 192.124 Q2142.11 191.708 2141.26 191.522 Q2140.43 191.314 2139.41 191.314 Q2135.8 191.314 2133.85 193.675 Q2131.93 196.013 2131.93 200.411 L2131.93 214.069 L2127.65 214.069 L2127.65 188.143 L2131.93 188.143 L2131.93 192.171 Q2133.27 189.809 2135.43 188.675 Q2137.58 187.518 2140.66 187.518 Q2141.1 187.518 2141.63 187.587 Q2142.16 187.634 2142.81 187.749 L2142.83 192.124 Z" fill="#000000" fill-rule="evenodd" fill-opacity="1" /><path clip-path="url(#clip460)" d="M2163.53 200.805 Q2163.53 196.175 2161.61 193.629 Q2159.71 191.083 2156.26 191.083 Q2152.83 191.083 2150.91 193.629 Q2149.01 196.175 2149.01 200.805 Q2149.01 205.411 2150.91 207.958 Q2152.83 210.504 2156.26 210.504 Q2159.71 210.504 2161.61 207.958 Q2163.53 205.411 2163.53 200.805 M2167.79 210.851 Q2167.79 217.471 2164.85 220.689 Q2161.91 223.93 2155.84 223.93 Q2153.6 223.93 2151.61 223.582 Q2149.61 223.258 2147.74 222.564 L2147.74 218.42 Q2149.61 219.439 2151.44 219.925 Q2153.27 220.411 2155.17 220.411 Q2159.36 220.411 2161.44 218.212 Q2163.53 216.036 2163.53 211.615 L2163.53 209.508 Q2162.21 211.8 2160.15 212.934 Q2158.09 214.069 2155.22 214.069 Q2150.45 214.069 2147.53 210.434 Q2144.61 206.8 2144.61 200.805 Q2144.61 194.786 2147.53 191.152 Q2150.45 187.518 2155.22 187.518 Q2158.09 187.518 2160.15 188.652 Q2162.21 189.786 2163.53 192.078 L2163.53 188.143 L2167.79 188.143 L2167.79 210.851 Z" fill="#000000" fill-rule="evenodd" fill-opacity="1" /><path clip-path="url(#clip460)" d="M2198.73 200.041 L2198.73 202.124 L2179.15 202.124 Q2179.43 206.522 2181.79 208.837 Q2184.17 211.129 2188.41 211.129 Q2190.86 211.129 2193.16 210.527 Q2195.47 209.925 2197.74 208.721 L2197.74 212.749 Q2195.45 213.721 2193.04 214.231 Q2190.63 214.74 2188.16 214.74 Q2181.95 214.74 2178.32 211.129 Q2174.71 207.518 2174.71 201.36 Q2174.71 194.995 2178.13 191.268 Q2181.58 187.518 2187.42 187.518 Q2192.65 187.518 2195.68 190.897 Q2198.73 194.254 2198.73 200.041 M2194.48 198.791 Q2194.43 195.296 2192.51 193.212 Q2190.61 191.129 2187.46 191.129 Q2183.9 191.129 2181.74 193.143 Q2179.61 195.157 2179.29 198.814 L2194.48 198.791 Z" fill="#000000" fill-rule="evenodd" fill-opacity="1" /><path clip-path="url(#clip460)" d="M2216.51 216.476 Q2214.71 221.106 2212.99 222.518 Q2211.28 223.93 2208.41 223.93 L2205.01 223.93 L2205.01 220.365 L2207.51 220.365 Q2209.27 220.365 2210.24 219.532 Q2211.21 218.698 2212.39 215.596 L2213.16 213.652 L2202.67 188.143 L2207.18 188.143 L2215.29 208.421 L2223.39 188.143 L2227.9 188.143 L2216.51 216.476 Z" fill="#000000" fill-rule="evenodd" fill-opacity="1" /></svg>
